<?xml version="1.0" standalone="no"?>
<!DOCTYPE svg PUBLIC "-//W3C//DTD SVG 20010904//EN"
 "http://www.w3.org/TR/2001/REC-SVG-20010904/DTD/svg10.dtd">
<svg version="1.0" xmlns="http://www.w3.org/2000/svg"
 width="46.000000pt" height="46.000000pt" viewBox="0 0 46.000000 46.000000"
 preserveAspectRatio="xMidYMid meet">

<g transform="translate(0.000000,46.000000) scale(0.100000,-0.100000)"
fill="#000000" stroke="none">
<path d="M174 420 c-11 -4 -34 -24 -52 -44 -30 -34 -32 -41 -32 -113 0 -59 -4
-83 -21 -110 -30 -48 -20 -63 39 -63 42 0 50 -3 60 -25 21 -46 103 -46 124 0
10 22 18 25 60 25 59 0 69 15 39 63 -16 27 -21 51 -21 107 0 55 -5 80 -20 105
-33 54 -115 80 -176 55z m128 -49 c31 -27 33 -33 39 -120 5 -67 11 -97 24
-111 18 -20 17 -20 -128 -20 -81 0 -147 4 -147 8 0 4 5 13 11 19 6 6 14 53 18
103 6 88 8 93 39 121 45 40 99 40 144 0z m-42 -296 c-7 -8 -20 -15 -30 -15
-10 0 -23 7 -30 15 -11 13 -7 15 30 15 37 0 41 -2 30 -15z"/>
</g>
</svg>
