<svg id="svg" version="1.1" width="512" height="512" xmlns="http://www.w3.org/2000/svg">
<linearGradient id="paint0_linear" gradientTransform="rotate(90)">
    <stop offset="0%" stop-color="#2af598"/>
    <stop offset="100%" stop-color="#009efd"/>
</linearGradient>
<path d="M172.296 2.423 C 154.186 8.288,140.950 20.741,133.620 38.809 L 130.500 46.500 130.000 88.000 L 129.500 129.500 88.000 130.000 L 46.500 130.500 38.809 133.620 C 20.710 140.962,8.140 154.342,2.465 172.302 L 0.000 180.103 0.000 256.000 L 0.000 331.897 2.532 339.913 C 8.153 357.705,21.254 371.453,39.500 378.706 L 46.500 381.488 88.000 381.994 L 129.500 382.500 130.006 424.000 L 130.512 465.500 133.294 472.500 C 140.547 490.746,154.295 503.847,172.087 509.468 L 180.103 512.000 256.000 512.000 L 331.897 512.000 339.698 509.535 C 357.658 503.860,371.038 491.290,378.380 473.191 L 381.500 465.500 382.000 424.000 L 382.500 382.500 424.000 381.994 L 465.500 381.488 472.361 378.747 C 490.937 371.325,503.810 357.821,509.511 339.777 L 512.000 331.897 512.000 256.000 L 512.000 180.103 509.468 172.087 C 503.847 154.295,490.746 140.547,472.500 133.294 L 465.500 130.512 424.000 130.006 L 382.500 129.500 381.994 88.000 L 381.488 46.500 378.706 39.500 C 371.453 21.254,357.705 8.153,339.913 2.532 L 331.897 0.000 255.698 0.045 L 179.500 0.089 172.296 2.423 M330.692 42.741 C 334.695 44.881,338.670 49.196,340.602 53.500 C 341.096 54.600,341.725 81.150,342.000 112.500 L 342.500 169.500 399.500 170.000 C 430.850 170.275,457.400 170.904,458.500 171.398 C 462.804 173.330,467.119 177.305,469.259 181.308 L 471.500 185.500 471.500 256.000 C 471.500 322.960,471.406 326.676,469.629 330.000 C 466.986 334.946,465.075 336.905,460.500 339.356 C 456.579 341.458,455.377 341.510,399.500 342.000 L 342.500 342.500 342.000 399.500 C 341.510 455.377,341.458 456.579,339.356 460.500 C 336.905 465.075,334.946 466.986,330.000 469.629 C 326.676 471.406,322.960 471.500,256.000 471.500 C 189.040 471.500,185.324 471.406,182.000 469.629 C 177.054 466.986,175.095 465.075,172.644 460.500 C 170.542 456.579,170.490 455.377,170.000 399.500 L 169.500 342.500 112.500 342.000 C 59.281 341.533,55.268 341.376,52.000 339.629 C 47.054 336.986,45.095 335.075,42.644 330.500 C 40.510 326.519,40.500 326.163,40.500 256.000 L 40.500 185.500 42.741 181.308 C 44.881 177.305,49.196 173.330,53.500 171.398 C 54.600 170.904,81.150 170.275,112.500 170.000 L 169.500 169.500 170.000 112.500 C 170.275 81.150,170.904 54.600,171.398 53.500 C 174.272 47.098,179.639 42.627,186.500 40.919 C 188.150 40.508,220.325 40.245,258.000 40.336 L 326.500 40.500 330.692 42.741 M231.549 107.043 C 218.415 129.067,207.294 147.318,206.835 147.602 C 203.486 149.672,210.209 150.000,256.000 150.000 C 283.500 150.000,306.000 149.698,306.000 149.329 C 306.000 148.960,305.394 147.947,304.653 147.079 C 303.414 145.626,260.803 74.369,258.112 69.250 C 257.462 68.013,256.592 67.000,256.179 67.000 C 255.766 67.000,244.683 85.019,231.549 107.043 M109.500 230.034 C 61.924 258.401,66.384 255.642,67.014 256.314 C 67.297 256.615,85.972 267.879,108.514 281.345 L 149.500 305.827 149.767 280.914 C 149.914 267.211,149.914 244.791,149.767 231.092 L 149.500 206.183 109.500 230.034 M362.000 256.000 C 362.000 283.500,362.302 306.000,362.671 306.000 C 363.040 306.000,364.053 305.391,364.921 304.647 C 365.790 303.902,377.750 296.629,391.500 288.484 C 433.177 263.794,444.486 256.903,444.811 256.000 C 444.982 255.524,444.082 254.589,442.811 253.920 C 437.637 251.199,366.383 208.594,364.921 207.347 C 364.053 206.606,363.040 206.000,362.671 206.000 C 362.302 206.000,362.000 228.500,362.000 256.000 M256.750 361.750 C 228.837 361.897,206.000 362.316,206.000 362.680 C 206.000 363.045,206.610 364.053,207.357 364.921 C 208.103 365.790,216.051 378.875,225.019 394.000 C 250.773 437.434,255.068 444.479,255.995 444.811 C 256.473 444.982,257.411 444.082,258.080 442.811 C 262.805 433.825,303.804 365.948,305.834 363.750 C 307.231 362.238,308.177 361.108,307.937 361.241 C 307.697 361.373,284.663 361.602,256.750 361.750 " fill="url(#paint0_linear)"/>
</svg>