<svg width="39" height="42" viewBox="0 0 39 42" fill="none" xmlns="http://www.w3.org/2000/svg">
<path d="M39 34.1452C39 29.9179 37.1068 25.9789 33.8058 23.3381L32.7775 22.5155L29.9622 12.7311C29.3037 10.4427 27.9502 8.47619 26.0478 7.04395C25.5108 6.63963 24.944 6.29122 24.3548 5.99629V0H14.6452V5.99637C14.056 6.29122 13.4893 6.63971 12.9522 7.04403C11.0499 8.47619 9.69627 10.4428 9.03781 12.7312L6.22252 22.5155L5.19412 23.3381C1.8932 25.9789 0 29.9179 0 34.1452V35.3589H10.5002C11.1561 36.9716 12.2492 38.4067 13.6442 39.463C15.3412 40.7481 17.3662 41.4274 19.5 41.4274C21.6338 41.4274 23.6588 40.7481 25.3559 39.463C26.7508 38.4067 27.844 36.9715 28.4999 35.3589H39V34.1452ZM17.0726 2.42739H21.9274V5.12729C21.1391 4.94814 20.3268 4.85477 19.5 4.85477C18.6732 4.85477 17.861 4.94814 17.0726 5.12729V2.42739ZM11.3705 13.4023C12.4074 9.79887 15.7504 7.28216 19.5 7.28216C23.2497 7.28216 26.5926 9.79887 27.6295 13.4023L30.1057 22.0083H8.89427L11.3705 13.4023ZM19.5 39C16.8789 39 14.4789 37.563 13.196 35.3589H25.8039C24.5211 37.563 22.1211 39 19.5 39ZM2.49098 32.9315C2.80897 29.9132 4.30732 27.1561 6.71051 25.2336L7.70784 24.4357H31.2921L32.2894 25.2336C34.6926 27.1561 36.1909 29.9132 36.5089 32.9315H2.49098Z" fill="#0081FE"/>
</svg>
