<svg width="13" height="14" viewBox="0 0 13 14" fill="none" xmlns="http://www.w3.org/2000/svg">
<path d="M9.40795 1.00388H10.9998C11.3372 0.99791 11.6651 1.11604 11.9211 1.33585C12.1772 1.55565 12.3437 1.86183 12.3889 2.19626V6.36959C12.3437 6.70402 12.1772 7.0102 11.9211 7.23C11.6651 7.44981 11.3372 7.56794 10.9998 7.56197H9.40795M5.23462 8.75435V11.1391C5.23462 11.6135 5.42306 12.0684 5.75848 12.4038C6.0939 12.7393 6.54883 12.9277 7.02319 12.9277L9.40795 7.56197V1.00388H2.68292C2.39536 1.00063 2.11632 1.10141 1.8972 1.28766C1.67808 1.47391 1.53366 1.73307 1.49054 2.0174L0.667799 7.38312C0.64186 7.55401 0.653387 7.7285 0.70158 7.8945C0.749772 8.0605 0.833479 8.21403 0.946901 8.34446C1.06032 8.4749 1.20075 8.57912 1.35844 8.64989C1.51614 8.72067 1.68734 8.75631 1.86018 8.75435H5.23462Z" stroke="#83859C" stroke-width="0.894286" stroke-linecap="round" stroke-linejoin="round"/>
</svg>
