<svg id="svg" version="1.1" width="512" height="512" xmlns="http://www.w3.org/2000/svg">
<linearGradient id="paint0_linear" gradientTransform="rotate(90)">
    <stop offset="0%" stop-color="#2af598"/>
    <stop offset="100%" stop-color="#009efd"/>
</linearGradient>
<path d="M320.500 1.602 C 317.750 2.347,312.125 4.592,308.000 6.591 C 300.686 10.135,296.896 13.829,155.363 155.363 C 13.891 296.835,10.133 300.689,6.586 308.000 C 1.553 318.373,0.026 324.912,0.012 336.145 C -0.002 347.771,2.289 356.262,8.205 366.500 C 11.615 372.401,22.165 383.412,75.375 436.607 C 142.796 504.008,143.259 504.416,158.186 509.426 C 164.287 511.474,167.798 512.000,175.378 512.000 C 186.584 512.000,193.735 510.350,204.000 505.395 C 211.324 501.860,214.910 498.365,356.637 356.637 C 498.365 214.910,501.860 211.324,505.395 204.000 C 507.386 199.875,509.687 193.891,510.508 190.701 C 512.719 182.109,512.449 167.689,509.920 159.355 C 505.291 144.104,504.865 143.615,436.625 75.375 C 368.385 7.135,367.896 6.709,352.645 2.080 C 344.586 -0.365,328.640 -0.602,320.500 1.602 M345.500 43.267 C 349.752 45.540,467.459 163.802,469.462 167.812 C 471.383 171.660,471.659 179.189,470.037 183.500 C 468.686 187.091,344.232 312.000,342.006 312.000 C 340.041 312.000,200.000 171.964,200.000 170.000 C 200.000 169.172,228.294 140.202,262.876 105.624 C 322.085 46.420,326.031 42.683,330.533 41.540 C 335.781 40.207,340.879 40.796,345.500 43.267 M255.907 151.324 C 249.303 154.806,245.619 160.890,245.206 168.996 C 244.787 177.207,247.530 183.104,253.793 187.456 C 257.302 189.894,259.312 190.503,264.793 190.788 C 270.928 191.106,271.969 190.853,277.000 187.818 C 284.513 183.286,287.256 178.013,286.790 169.000 C 286.515 163.681,285.888 161.679,283.339 157.983 C 277.337 149.279,265.319 146.361,255.907 151.324 M326.007 151.187 C 323.248 152.607,320.353 155.237,318.507 158.000 C 315.817 162.025,315.500 163.309,315.500 170.164 C 315.500 177.066,315.798 178.251,318.500 182.087 C 320.150 184.430,323.525 187.433,326.000 188.760 C 332.342 192.161,341.866 191.571,348.064 187.392 C 360.085 179.286,360.060 160.965,348.017 152.661 C 341.809 148.381,332.650 147.767,326.007 151.187 M399.000 149.676 C 382.852 156.362,379.933 177.652,393.849 187.247 C 397.677 189.886,399.650 190.516,405.000 190.804 C 413.069 191.238,419.024 188.442,423.470 182.130 C 425.903 178.675,426.501 176.703,426.783 171.207 C 427.214 162.777,424.531 156.938,418.207 152.544 C 414.636 150.062,412.785 149.518,407.207 149.307 C 403.518 149.168,399.825 149.334,399.000 149.676 M241.247 270.747 C 280.161 309.658,312.000 341.947,312.000 342.500 C 312.000 344.397,186.578 468.879,183.500 470.037 C 178.900 471.768,171.610 471.357,167.324 469.125 C 162.545 466.637,44.831 348.780,42.538 344.188 C 40.617 340.340,40.341 332.811,41.963 328.500 C 43.119 325.427,167.601 200.000,169.494 200.000 C 170.045 200.000,202.333 231.836,241.247 270.747 M165.748 320.427 C 150.493 325.871,146.093 344.356,157.368 355.632 C 169.094 367.358,188.744 361.805,193.127 345.527 C 195.822 335.518,188.911 323.536,178.692 320.501 C 172.600 318.692,170.640 318.681,165.748 320.427 " fill="url(#paint0_linear)"/>
</svg>