<svg viewBox="0 0 40 40" width="40px" height="40px" xmlns="http://www.w3.org/2000/svg">
  <defs></defs>
  <path fill="#FFC107" d="M 39.611 16.083 L 38 16.083 L 38 16 L 20 16 L 20 24 L 31.303 24 C 29.654 28.657 25.223 32 20 32 C 13.373 32 8 26.627 8 20 C 8 13.373 13.373 8 20 8 C 23.059 8 25.842 9.154 27.961 11.039 L 33.618 5.382 C 30.046 2.053 25.268 0 20 0 C 8.955 0 0 8.955 0 20 C 0 31.045 8.955 40 20 40 C 31.045 40 40 31.045 40 20 C 40 18.659 39.862 17.35 39.611 16.083 Z"></path>
  <path fill="#FF3D00" d="M 2.306 10.691 L 8.877 15.51 C 10.655 11.108 14.961 8 20 8 C 23.059 8 25.842 9.154 27.961 11.039 L 33.618 5.382 C 30.046 2.053 25.268 0 20 0 C 12.318 0 5.656 4.337 2.306 10.691 Z"></path>
  <path fill="#4CAF50" d="M 20 40 C 25.166 40 29.86 38.023 33.409 34.808 L 27.219 29.57 C 25.211 31.091 22.715 32 20 32 C 14.798 32 10.381 28.683 8.717 24.054 L 2.195 29.079 C 5.505 35.556 12.227 40 20 40 Z"></path>
  <path fill="#1976D2" d="M 39.611 16.083 L 38 16.083 L 38 16 L 20 16 L 20 24 L 31.303 24 C 30.511 26.237 29.072 28.166 27.216 29.571 C 27.217 29.57 27.218 29.57 27.219 29.569 L 33.409 34.807 C 32.971 35.205 40 30 40 20 C 40 18.659 39.862 17.35 39.611 16.083 Z"></path>
</svg>