<svg viewBox="0 0 36 36" width="36px" height="36px" xmlns="http://www.w3.org/2000/svg">
  <defs></defs>
  <radialGradient id="yOrnnhliCrdS2gy~4tD8ma" cx="19.38" cy="42.035" r="44.899" gradientUnits="userSpaceOnUse">
    <stop offset="0" stop-color="#fd5"></stop>
    <stop offset="0.328" stop-color="#ff543f"></stop>
    <stop offset="0.348" stop-color="#fc5245"></stop>
    <stop offset="0.504" stop-color="#e64771"></stop>
    <stop offset="0.643" stop-color="#d53e91"></stop>
    <stop offset="0.761" stop-color="#cc39a4"></stop>
    <stop offset="0.841" stop-color="#c837ab"></stop>
  </radialGradient>
  <path fill="url(#yOrnnhliCrdS2gy~4tD8ma)" d="M34.017,41.99l-20,0.019c-4.4,0.004-8.003-3.592-8.008-7.992l-0.019-20	c-0.004-4.4,3.592-8.003,7.992-8.008l20-0.019c4.4-0.004,8.003,3.592,8.008,7.992l0.019,20	C42.014,38.383,38.417,41.986,34.017,41.99z" transform="matrix(1, 0, 0, 1, -5.989994525909424, -5.98999834060669)"></path>
  <radialGradient id="yOrnnhliCrdS2gy~4tD8mb" cx="11.786" cy="5.54" r="29.813" gradientTransform="matrix(1 0 0 .6663 0 1.849)" gradientUnits="userSpaceOnUse">
    <stop offset="0" stop-color="#4168c9"></stop>
    <stop offset="0.999" stop-color="#4168c9" stop-opacity="0"></stop>
  </radialGradient>
  <path fill="url(#yOrnnhliCrdS2gy~4tD8mb)" d="M34.017,41.99l-20,0.019c-4.4,0.004-8.003-3.592-8.008-7.992l-0.019-20	c-0.004-4.4,3.592-8.003,7.992-8.008l20-0.019c4.4-0.004,8.003,3.592,8.008,7.992l0.019,20	C42.014,38.383,38.417,41.986,34.017,41.99z" transform="matrix(1, 0, 0, 1, -5.989994525909424, -5.98999834060669)"></path>
  <path fill="#fff" d="M 18.01 25.01 C 14.151 25.01 11.01 21.87 11.01 18.01 C 11.01 14.15 14.151 11.01 18.01 11.01 C 21.869 11.01 25.01 14.15 25.01 18.01 C 25.01 21.87 21.869 25.01 18.01 25.01 Z M 18.01 13.01 C 15.253 13.01 13.01 15.253 13.01 18.01 C 13.01 20.767 15.253 23.01 18.01 23.01 C 20.767 23.01 23.01 20.767 23.01 18.01 C 23.01 15.253 20.767 13.01 18.01 13.01 Z"></path>
  <circle cx="25.51" cy="10.51" r="1.5" fill="#fff"></circle>
  <path fill="#fff" d="M 24.01 31.01 L 12.01 31.01 C 8.151 31.01 5.01 27.87 5.01 24.01 L 5.01 12.01 C 5.01 8.15 8.151 5.01 12.01 5.01 L 24.01 5.01 C 27.869 5.01 31.01 8.15 31.01 12.01 L 31.01 24.01 C 31.01 27.87 27.869 31.01 24.01 31.01 Z M 12.01 7.01 C 9.253 7.01 7.01 9.253 7.01 12.01 L 7.01 24.01 C 7.01 26.767 9.253 29.01 12.01 29.01 L 24.01 29.01 C 26.767 29.01 29.01 26.767 29.01 24.01 L 29.01 12.01 C 29.01 9.253 26.767 7.01 24.01 7.01 L 12.01 7.01 Z"></path>
</svg>