<svg id="svg" version="1.1" width="512" height="512" xmlns="http://www.w3.org/2000/svg">
<linearGradient id="paint0_linear" gradientTransform="rotate(45)">
    <stop offset="30%" stop-color="#d93fc8"/>
    <stop offset="100%" stop-color="#7188e5"/>
</linearGradient>
<path d="M126.722 75.029 C 87.612 79.463,52.328 104.025,35.995 138.185 C 31.504 147.577,29.392 154.253,21.024 185.500 C 10.779 223.759,4.929 253.163,1.428 284.000 C -0.855 304.102,-0.086 342.027,2.895 356.402 C 12.323 401.863,35.464 427.620,74.000 435.546 C 83.992 437.601,103.339 437.886,113.000 436.120 C 130.222 432.972,148.133 425.440,164.423 414.495 C 185.961 400.024,210.069 371.731,223.317 345.377 C 225.286 341.459,227.632 337.971,228.531 337.627 C 230.838 336.741,303.253 336.873,304.653 337.765 C 305.287 338.169,309.422 345.700,313.842 354.500 C 326.004 378.712,335.951 393.118,350.439 407.500 C 364.465 421.425,373.694 427.467,388.738 432.574 C 400.815 436.674,412.938 438.401,423.500 437.528 C 471.042 433.595,498.809 407.045,509.263 355.524 C 511.263 345.667,511.500 341.536,511.500 316.500 C 511.500 287.012,511.113 282.560,505.893 252.000 C 501.274 224.964,492.117 186.943,482.532 155.000 C 470.164 113.787,436.575 84.488,391.857 75.907 C 381.218 73.865,359.112 74.397,347.500 76.973 C 335.409 79.656,322.741 84.412,313.029 89.916 L 305.821 94.000 256.246 94.000 L 206.671 94.000 199.585 90.132 C 177.293 77.962,150.263 72.360,126.722 75.029 M163.804 121.852 C 169.190 123.673,176.484 127.164,181.126 130.142 C 185.536 132.971,190.800 135.876,192.822 136.599 C 198.182 138.513,313.818 138.513,319.178 136.599 C 321.200 135.876,326.464 132.971,330.874 130.142 C 348.079 119.105,370.000 115.263,389.352 119.893 C 409.942 124.819,427.169 137.859,435.763 155.025 C 442.603 168.687,457.278 225.277,463.373 261.500 C 467.611 286.680,468.407 295.643,468.396 318.000 C 468.387 336.065,468.052 341.018,466.299 349.000 C 463.572 361.417,460.785 368.596,455.786 376.083 C 447.659 388.252,436.092 393.510,417.500 393.485 C 407.223 393.472,406.052 393.260,399.682 390.267 C 378.977 380.539,360.405 355.613,342.933 314.106 C 338.230 302.933,334.960 298.796,328.522 295.871 C 324.779 294.171,320.548 294.043,267.500 294.028 C 230.742 294.017,209.159 294.384,206.723 295.060 C 200.068 296.908,196.378 301.273,189.519 315.411 C 181.638 331.656,176.560 340.098,168.111 351.000 C 150.972 373.115,131.933 386.826,111.017 392.115 C 104.391 393.791,100.662 394.125,92.604 393.767 C 70.451 392.781,58.145 384.313,50.169 364.566 C 38.117 334.729,41.828 278.213,60.581 206.000 C 73.013 158.125,75.743 151.457,88.000 139.024 C 93.784 133.157,97.596 130.340,104.662 126.707 C 117.991 119.855,126.570 117.937,142.000 118.362 C 152.830 118.661,155.743 119.127,163.804 121.852 M143.542 149.729 C 141.135 150.341,137.274 152.688,134.155 155.435 C 129.389 159.633,128.540 162.677,128.005 177.500 L 127.500 191.500 113.332 192.000 C 99.583 192.485,99.036 192.589,94.832 195.506 C 89.733 199.044,85.000 207.481,85.000 213.030 C 85.000 221.051,88.796 227.620,95.815 231.746 C 100.139 234.288,101.539 234.538,114.000 235.000 L 127.500 235.500 128.000 249.500 C 128.578 265.692,129.752 268.660,137.642 273.886 C 146.471 279.734,157.084 278.673,164.198 271.231 C 169.987 265.174,170.455 263.644,170.999 249.000 L 171.500 235.500 185.000 235.000 C 197.444 234.539,198.865 234.286,203.163 231.759 C 208.397 228.682,211.308 224.618,213.114 217.863 C 214.629 212.200,213.124 205.851,208.876 199.988 C 204.202 193.535,201.404 192.579,185.500 192.005 L 171.500 191.500 170.989 178.000 C 170.312 160.149,168.160 155.693,157.982 151.077 C 153.752 149.158,147.929 148.615,143.542 149.729 M353.500 151.305 C 347.603 154.149,345.810 155.992,343.077 162.018 C 336.603 176.290,346.936 192.051,362.718 191.978 C 374.633 191.923,383.923 182.633,383.978 170.718 C 384.031 159.085,375.836 150.271,364.098 149.338 C 359.616 148.981,357.504 149.373,353.500 151.305 M310.000 194.187 C 304.519 197.004,299.387 204.234,298.455 210.452 C 296.600 222.819,307.308 235.039,319.946 234.978 C 333.251 234.914,344.376 221.333,341.114 209.137 C 338.234 198.367,331.596 192.748,321.122 192.212 C 315.726 191.937,313.667 192.302,310.000 194.187 M397.500 193.149 C 389.895 195.929,384.059 204.866,384.022 213.790 C 383.943 232.696,407.028 242.013,420.520 228.520 C 427.425 221.616,428.758 212.826,424.250 203.936 C 420.365 196.274,414.939 192.678,406.729 192.322 C 403.303 192.174,399.150 192.546,397.500 193.149 M355.519 235.598 C 347.432 238.558,341.065 247.423,341.022 255.782 C 340.957 268.409,353.317 279.379,365.543 277.546 C 371.503 276.652,378.858 271.409,381.705 266.025 C 386.340 257.261,383.886 245.201,376.290 239.408 C 369.391 234.145,362.794 232.935,355.519 235.598 " fill="url(#paint0_linear)"/>
</svg>