<svg width="14" height="14" viewBox="0 0 14 14" fill="none" xmlns="http://www.w3.org/2000/svg">
<path d="M4.09814 12.9277H2.30957C1.99333 12.9277 1.69004 12.8021 1.46643 12.5785C1.24281 12.3549 1.11719 12.0516 1.11719 11.7353V7.562C1.11719 7.24576 1.24281 6.94248 1.46643 6.71886C1.69004 6.49525 1.99333 6.36962 2.30957 6.36962H4.09814M8.27147 5.17724V2.79248C8.27147 2.31812 8.08304 1.86319 7.74761 1.52777C7.41219 1.19234 6.95726 1.00391 6.4829 1.00391L4.09814 6.36962V12.9277H10.8232C11.1107 12.931 11.3898 12.8302 11.6089 12.6439C11.828 12.4577 11.9724 12.1985 12.0156 11.9142L12.8383 6.54848C12.8642 6.37758 12.8527 6.20309 12.8045 6.0371C12.7563 5.8711 12.6726 5.71756 12.5592 5.58713C12.4458 5.45669 12.3053 5.35248 12.1476 5.2817C11.99 5.21093 11.8188 5.17528 11.6459 5.17724H8.27147Z" stroke="#83859C" stroke-width="0.894286" stroke-linecap="round" stroke-linejoin="round"/>
</svg>
