<svg width="164" height="33" viewBox="0 0 164 33" fill="none" xmlns="http://www.w3.org/2000/svg">
<path d="M16.368 32.396C15.2533 32.396 14.344 32.1613 13.64 31.692C12.9653 31.2227 12.3933 30.4747 11.924 29.448L1.276 5.952C0.806667 4.92533 0.66 4.00133 0.836 3.18C1.012 2.35867 1.42267 1.728 2.068 1.288C2.71333 0.818665 3.52 0.583998 4.488 0.583998C5.66133 0.583998 6.556 0.847998 7.172 1.376C7.788 1.904 8.316 2.68133 8.756 3.708L16.5 21.66L24.244 3.664C24.684 2.63733 25.212 1.87467 25.828 1.376C26.444 0.847998 27.3093 0.583998 28.424 0.583998C29.3333 0.583998 30.096 0.818665 30.712 1.288C31.328 1.75733 31.7093 2.40266 31.856 3.224C32.032 4.016 31.8853 4.92533 31.416 5.952L20.724 29.448C20.284 30.4747 19.712 31.2227 19.008 31.692C18.3333 32.1613 17.4533 32.396 16.368 32.396ZM34.8824 32.396C33.5037 32.396 32.4917 31.9267 31.8464 30.988C31.201 30.0493 31.201 28.876 31.8464 27.468L42.8024 3.884C43.3304 2.74 43.9757 1.904 44.7384 1.376C45.501 0.847998 46.3957 0.583998 47.4224 0.583998C48.4197 0.583998 49.2997 0.847998 50.0624 1.376C50.825 1.904 51.4704 2.74 51.9984 3.884L62.9544 27.468C63.629 28.9053 63.6584 30.0933 63.0424 31.032C62.4264 31.9413 61.4584 32.396 60.1384 32.396C58.965 32.396 58.0557 32.132 57.4104 31.604C56.7944 31.076 56.237 30.2253 55.7384 29.052L54.3304 25.708H40.4704L39.0624 29.052C38.5344 30.2253 37.9917 31.076 37.4344 31.604C36.877 32.132 36.0264 32.396 34.8824 32.396ZM47.3344 9.428L43.1104 19.504H51.6464L47.4224 9.428H47.3344ZM72.093 32C69.277 32 67.869 30.6067 67.869 27.82V5.16C67.869 2.37333 69.277 0.979998 72.093 0.979998H82.829C86.173 0.979998 88.7543 1.71333 90.573 3.18C92.421 4.61733 93.345 6.55333 93.345 8.988C93.345 10.6013 92.9343 12.0093 92.113 13.212C91.321 14.4147 90.2063 15.3093 88.769 15.896C90.4996 16.424 91.8343 17.3187 92.773 18.58C93.7116 19.812 94.181 21.352 94.181 23.2C94.181 25.928 93.1983 28.084 91.233 29.668C89.297 31.2227 86.6423 32 83.269 32H72.093ZM75.613 13.3H81.377C82.8436 13.3 83.9143 13.036 84.589 12.508C85.293 11.98 85.645 11.1733 85.645 10.088C85.645 9.00267 85.293 8.21067 84.589 7.712C83.9143 7.184 82.8436 6.92 81.377 6.92H75.613V13.3ZM75.613 26.06H82.169C83.665 26.06 84.7503 25.7813 85.425 25.224C86.129 24.6373 86.481 23.772 86.481 22.628C86.481 21.484 86.129 20.6333 85.425 20.076C84.7503 19.5187 83.665 19.24 82.169 19.24H75.613V26.06ZM101.01 32.396C99.6309 32.396 98.6189 31.9267 97.9736 30.988C97.3282 30.0493 97.3282 28.876 97.9736 27.468L108.93 3.884C109.458 2.74 110.103 1.904 110.866 1.376C111.628 0.847998 112.523 0.583998 113.55 0.583998C114.547 0.583998 115.427 0.847998 116.19 1.376C116.952 1.904 117.598 2.74 118.126 3.884L129.082 27.468C129.756 28.9053 129.786 30.0933 129.17 31.032C128.554 31.9413 127.586 32.396 126.266 32.396C125.092 32.396 124.183 32.132 123.538 31.604C122.922 31.076 122.364 30.2253 121.866 29.052L120.458 25.708H106.598L105.19 29.052C104.662 30.2253 104.119 31.076 103.562 31.604C103.004 32.132 102.154 32.396 101.01 32.396ZM113.462 9.428L109.238 19.504H117.774L113.55 9.428H113.462ZM148.183 32.484C145.044 32.484 142.287 31.824 139.911 30.504C137.564 29.1547 135.731 27.2773 134.411 24.872C133.091 22.4667 132.431 19.6653 132.431 16.468C132.431 13.2413 133.076 10.44 134.367 8.064C135.687 5.65866 137.535 3.796 139.911 2.476C142.287 1.156 145.044 0.495999 148.183 0.495999C151.321 0.495999 154.064 1.156 156.411 2.476C158.787 3.796 160.635 5.65866 161.955 8.064C163.275 10.44 163.935 13.2413 163.935 16.468C163.935 19.6653 163.275 22.4667 161.955 24.872C160.635 27.2773 158.787 29.1547 156.411 30.504C154.064 31.824 151.321 32.484 148.183 32.484ZM148.183 25.708C150.471 25.708 152.26 24.9013 153.551 23.288C154.871 21.6453 155.531 19.372 155.531 16.468C155.531 13.564 154.885 11.3053 153.595 9.692C152.304 8.07867 150.5 7.272 148.183 7.272C145.865 7.272 144.061 8.07867 142.771 9.692C141.48 11.3053 140.835 13.564 140.835 16.468C140.835 19.372 141.48 21.6453 142.771 23.288C144.061 24.9013 145.865 25.708 148.183 25.708Z" fill="#3878F4"/>
</svg>
