<svg width="19" height="15" viewBox="0 0 19 15" fill="none" xmlns="http://www.w3.org/2000/svg">
<path d="M18.0075 2.94946V11.2828C18.0075 11.8353 17.788 12.3652 17.3973 12.7559C17.0066 13.1466 16.4767 13.3661 15.9242 13.3661H3.42415C2.87162 13.3661 2.34172 13.1466 1.95101 12.7559C1.56031 12.3652 1.34082 11.8353 1.34082 11.2828V2.94946" stroke="#170F49" stroke-width="1.4" stroke-linecap="round" stroke-linejoin="round"/>
<path d="M18.0075 2.94954C18.0075 2.39701 17.788 1.86711 17.3973 1.47641C17.0066 1.0857 16.4767 0.866211 15.9242 0.866211H3.42415C2.87162 0.866211 2.34172 1.0857 1.95101 1.47641C1.56031 1.86711 1.34082 2.39701 1.34082 2.94954L8.56999 7.46343C8.9011 7.67038 9.2837 7.7801 9.67415 7.7801C10.0646 7.7801 10.4472 7.67038 10.7783 7.46343L18.0075 2.94954Z" stroke="#170F49" stroke-width="1.4" stroke-linecap="round" stroke-linejoin="round"/>
</svg>
