<svg width="31" height="28" viewBox="0 0 31 28" fill="none" xmlns="http://www.w3.org/2000/svg">
<path d="M4.83293 8.00004C5.96872 6.08346 7.62639 4.5102 9.62269 3.45421C11.619 2.39821 13.8761 1.90062 16.1446 2.01645C18.4131 2.13227 20.6045 2.857 22.4765 4.1105C24.3486 5.36401 25.8284 7.09746 26.7523 9.11921M2 4.27306L3.12304 9.0124C3.31432 9.8196 4.14104 10.3229 4.96958 10.1365L9.83417 9.04242M26.1671 20C25.0313 21.9165 23.3736 23.4898 21.3773 24.5458C19.381 25.6018 17.1239 26.0994 14.8554 25.9836C12.5869 25.8677 10.3955 25.143 8.52347 23.8895C6.65141 22.636 5.17161 20.9025 4.24767 18.8808M29 23.7269L27.877 18.9876C27.6857 18.1804 26.859 17.6771 26.0304 17.8635L21.1658 18.9576" stroke="#FF342B" stroke-width="3" stroke-linecap="round"/>
</svg>
