<svg width="19" height="21" viewBox="0 0 19 21" fill="none" xmlns="http://www.w3.org/2000/svg">
<path fill-rule="evenodd" clip-rule="evenodd" d="M1.73803 7.52982C1.86139 7.8459 2.05438 8.12917 2.30225 8.35797C2.55013 8.58677 2.8463 8.75504 3.16813 8.8499L10.2462 10.5L3.23468 12.0586C2.90543 12.15 2.60164 12.3178 2.34729 12.5487C2.09293 12.7796 1.89499 13.0673 1.76908 13.3892L0.0860857 19.3505C-0.00599784 19.5818 -0.0247475 19.8364 0.0324436 20.079C0.0896346 20.3216 0.219924 20.5401 0.405197 20.7041C0.59047 20.8681 0.821519 20.9695 1.06622 20.9941C1.31092 21.0188 1.55711 20.9655 1.77056 20.8416L18.0563 11.5501C18.2412 11.4463 18.3954 11.2942 18.5027 11.1095C18.6101 10.9248 18.6667 10.7144 18.6667 10.5C18.6667 10.2856 18.6101 10.0752 18.5027 9.89051C18.3954 9.70585 18.2412 9.55372 18.0563 9.44994L1.77056 0.158374C1.55711 0.0345314 1.31092 -0.0187723 1.06622 0.00587421C0.821519 0.0305207 0.59047 0.131893 0.405197 0.295895C0.219924 0.459898 0.0896346 0.678381 0.0324436 0.920967C-0.0247475 1.16355 -0.00599784 1.41819 0.0860857 1.64946L1.73803 7.52982Z" fill="#AAB0B7"/>
</svg>
