<svg width="28" height="27" viewBox="0 0 28 27" fill="none" xmlns="http://www.w3.org/2000/svg">
<path d="M13.7445 0.649598C13.8343 0.373205 14.2253 0.373206 14.3151 0.649599L17.343 9.96842C17.3831 10.092 17.4983 10.1757 17.6283 10.1757H27.4267C27.7173 10.1757 27.8381 10.5476 27.603 10.7184L19.676 16.4778C19.5708 16.5542 19.5268 16.6896 19.567 16.8132L22.5948 26.132C22.6847 26.4084 22.3683 26.6382 22.1332 26.4674L14.2061 20.7081C14.101 20.6317 13.9586 20.6317 13.8535 20.7081L5.9264 26.4674C5.69129 26.6382 5.37494 26.4084 5.46475 26.132L8.49262 16.8132C8.53278 16.6896 8.48878 16.5542 8.38364 16.4778L0.456574 10.7184C0.22146 10.5476 0.342293 10.1757 0.63291 10.1757H10.4313C10.5613 10.1757 10.6765 10.092 10.7166 9.96842L13.7445 0.649598Z" fill="#3878F4" fill-opacity="0.4"/>
</svg>
