<svg viewBox="0 0 40 40" width="40px" height="40px" xmlns="http://www.w3.org/2000/svg">
  <path fill="#1976d2" d="M 20 0 C 4.604 0 -5.019 16.667 2.679 30 C 6.252 36.188 12.855 40 20 40 C 35.396 40 45.019 23.333 37.321 10 C 33.748 3.812 27.145 0 20 0 Z"></path>
  <path fill="#fff" d="M 31.937 14.041 C 31.983 13.89 32.005 13.75 31.999 13.625 C 31.984 13.263 31.735 13 31.149 13 L 28.531 13 C 27.87 13 27.565 13.4 27.387 13.801 C 27.387 13.801 25.755 17.16 23.874 19.375 C 23.264 20.016 22.954 20 22.624 20 C 22.447 20 22 19.786 22 19.199 L 22 14.014 C 22 13.32 21.827 13 21.268 13 L 16.619 13 C 16.212 13 16 13.32 16 13.641 C 16 14.308 16.898 14.468 17 16.337 L 17 19.96 C 17 20.84 16.847 21 16.517 21 C 15.627 21 13.875 18 12.702 14.068 C 12.448 13.294 12.194 13 11.533 13 L 8.89 13 C 8.127 13 8 13.374 8 13.774 C 8 14.495 8.6 18.393 11.875 22.875 C 14.25 26.125 17.379 28 20.149 28 C 21.827 28 21.999 27.573 21.999 26.906 L 21.999 23.934 C 22 23.133 22.183 23 22.717 23 C 23.098 23 23.875 23.25 25.375 25 C 27.105 27.018 27.419 28 28.411 28 L 31.029 28 C 31.637 28 31.986 27.745 32 27.25 C 32.003 27.124 31.985 26.983 31.944 26.826 C 31.75 26.25 30.86 24.842 29.75 23.5 C 29.135 22.757 28.528 22.021 28.249 21.621 C 28.062 21.36 27.991 21.176 28 21 C 28.009 20.815 28.105 20.639 28.249 20.393 C 28.223 20.393 31.607 15.642 31.937 14.041 Z"></path>
</svg>