<svg height="20.5" width="20.5" viewBox="0 0 20.5 20.5" xmlns="http://www.w3.org/2000/svg">
  <path d="M 11 4.972 C 11 4.558 10.664 4.222 10.25 4.222 C 9.836 4.222 9.5 4.558 9.5 4.972 L 11 4.972 Z M 9.5 15.528 C 9.5 15.942 9.836 16.278 10.25 16.278 C 10.664 16.278 11 15.942 11 15.528 L 9.5 15.528 Z M 4.972 9.5 C 4.558 9.5 4.222 9.836 4.222 10.25 C 4.222 10.664 4.558 11 4.972 11 L 4.972 9.5 Z M 15.528 11 C 15.942 11 16.278 10.664 16.278 10.25 C 16.278 9.836 15.942 9.5 15.528 9.5 L 15.528 11 Z M 9.5 4.972 L 9.5 15.528 L 11 15.528 L 11 4.972 L 9.5 4.972 Z M 4.972 11 L 15.528 11 L 15.528 9.5 L 4.972 9.5 L 4.972 11 Z M 19 10.25 C 19 15.082 15.082 19 10.25 19 L 10.25 20.5 C 15.911 20.5 20.5 15.911 20.5 10.25 L 19 10.25 Z M 10.25 19 C 5.417 19 1.5 15.082 1.5 10.25 L 0 10.25 C 0 15.911 4.589 20.5 10.25 20.5 L 10.25 19 Z M 1.5 10.25 C 1.5 5.417 5.417 1.5 10.25 1.5 L 10.25 0 C 4.589 0 0 4.589 0 10.25 L 1.5 10.25 Z M 10.25 1.5 C 15.082 1.5 19 5.417 19 10.25 L 20.5 10.25 C 20.5 4.589 15.911 0 10.25 0 L 10.25 1.5 Z" fill="#3878F4"></path>
</svg>