<svg width="42" height="42" viewBox="0 0 42 42" fill="none" xmlns="http://www.w3.org/2000/svg">
<path d="M18.5994 0.134179C9.12672 1.19091 1.43326 8.71186 0.187454 18.1614C-1.57769 31.5521 9.36986 42.9443 22.6303 41.938C27.5082 41.5678 32.0741 39.388 35.6516 36.0516L35.9589 35.7651C36.3124 35.4355 36.3316 34.8818 36.002 34.5284L34.8081 33.2481C34.4785 32.8947 33.9248 32.8754 33.5714 33.205L32.9313 33.8019C28.9519 37.5124 23.4892 39.1817 17.9783 38.2432C10.1677 36.913 4.16334 30.2819 3.55344 22.3823C2.74699 11.9362 11.1732 3.20682 21.5188 3.50747C31.058 3.78482 38.5 11.9252 38.5 21.4685V22.7499C38.5 24.7953 36.7374 26.4358 34.651 26.233C32.8327 26.0561 31.5 24.4218 31.5 22.5948V14.875C31.5 14.3917 31.1082 14 30.625 14H28.875C28.5237 14 28.2252 14.21 28.086 14.5088C26.3252 12.5882 23.8048 11.375 21 11.375C15.6927 11.375 11.375 15.6927 11.375 21C11.375 26.3072 15.6927 30.625 21 30.625C24.3432 30.625 27.2911 28.9098 29.0171 26.3151C30.3166 28.4869 32.7311 29.9181 35.4795 29.7339C39.1958 29.485 42 26.2274 42 22.5029V21C42 8.62983 31.2482 -1.27692 18.5994 0.134179ZM21 27.125C17.623 27.125 14.875 24.377 14.875 21C14.875 17.623 17.623 14.8749 21 14.8749C24.377 14.8749 27.125 17.623 27.125 21C27.125 24.377 24.377 27.125 21 27.125Z" fill="#0081FE"/>
</svg>
