<svg id="svg" version="1.1" width="512" height="512" opacity="0.5" xmlns="http://www.w3.org/2000/svg">
<linearGradient id="paint0_linear" gradientTransform="rotate(90)">
    <stop offset="0%" stop-color="#01bfff"/>
    <stop offset="100%" stop-color="#5459ff"/>
</linearGradient>
<path d="M129.396 32.429 C 124.457 34.580,121.630 39.445,121.176 46.579 C 120.154 62.625,130.318 78.599,146.700 86.697 L 154.394 90.500 251.947 91.000 C 343.422 91.469,349.705 91.612,352.794 93.299 C 359.649 97.041,362.185 106.904,358.040 113.701 C 353.966 120.384,353.579 120.446,312.000 121.000 L 274.500 121.500 266.733 125.209 C 257.031 129.842,250.270 136.653,245.204 146.898 L 241.500 154.388 241.193 182.046 L 240.886 209.705 232.693 208.390 C 221.870 206.654,206.041 201.888,195.232 197.112 C 190.429 194.989,182.900 191.652,178.500 189.695 C 163.396 182.978,155.732 181.500,136.000 181.500 C 119.920 181.501,117.693 181.726,108.554 184.279 C 80.636 192.077,57.301 210.441,43.547 235.437 C 37.155 247.055,34.781 256.036,17.499 333.977 C 2.266 402.675,0.000 414.016,0.000 421.544 C -0.000 446.907,15.810 469.057,40.119 477.749 C 50.711 481.536,68.031 482.151,77.293 479.069 C 89.743 474.926,96.771 469.401,154.757 418.177 C 159.848 413.680,164.260 410.000,164.562 410.000 C 164.863 410.000,168.070 411.786,171.688 413.968 C 180.137 419.064,186.937 421.000,196.383 421.000 C 211.264 421.000,224.761 413.934,232.675 402.000 C 235.046 398.425,237.685 394.488,238.540 393.250 C 240.041 391.076,240.631 391.000,256.000 391.000 C 271.369 391.000,271.959 391.076,273.460 393.250 C 274.315 394.488,276.954 398.425,279.325 402.000 C 287.239 413.934,300.736 421.000,315.617 421.000 C 325.083 421.000,331.864 419.063,340.381 413.926 C 344.637 411.359,347.528 410.201,348.416 410.708 C 349.179 411.144,360.310 420.794,373.152 432.153 C 414.886 469.068,422.804 475.108,434.625 479.042 C 443.581 482.022,461.078 481.508,471.500 477.959 C 495.368 469.831,512.000 446.685,512.000 421.594 C 512.000 414.134,509.686 402.549,494.512 334.055 C 483.270 283.309,475.980 252.503,474.101 247.806 C 461.499 216.306,435.982 193.368,403.427 184.274 C 394.310 181.727,392.072 181.501,376.000 181.500 C 355.970 181.500,349.133 182.860,332.750 190.104 C 311.398 199.545,307.134 201.239,297.558 204.086 C 292.026 205.731,283.759 207.676,279.186 208.410 L 270.871 209.744 271.186 186.122 C 271.489 163.352,271.585 162.364,273.847 158.726 C 278.331 151.513,278.056 151.559,320.056 151.000 L 357.612 150.500 365.320 146.689 C 375.410 141.699,382.189 134.902,386.887 125.065 C 390.393 117.725,390.500 117.157,390.500 105.948 C 390.500 94.527,390.456 94.306,386.583 86.470 C 381.668 76.527,375.401 70.296,365.282 65.294 L 357.606 61.500 260.053 61.000 C 164.423 60.510,162.431 60.460,159.000 58.477 C 155.018 56.175,151.002 49.182,150.996 44.538 C 150.984 34.823,139.145 28.186,129.396 32.429 M153.500 213.631 C 156.800 214.429,163.100 216.697,167.500 218.669 C 205.019 235.487,226.830 240.988,256.000 240.988 C 285.412 240.988,306.573 235.653,344.500 218.674 C 356.672 213.225,362.941 211.873,376.000 211.880 C 393.671 211.890,407.103 216.364,421.589 227.066 C 431.714 234.546,441.833 248.388,445.974 260.425 C 447.092 263.674,455.430 299.802,464.503 340.710 C 482.164 420.338,482.812 424.413,479.110 432.565 C 473.078 445.844,457.782 453.404,444.663 449.590 C 441.506 448.673,436.904 446.203,433.836 443.779 C 420.097 432.927,363.433 382.701,362.163 380.249 C 361.665 379.287,361.042 375.350,360.778 371.500 C 359.739 356.345,350.093 342.615,335.376 335.341 C 328.443 331.915,326.822 331.524,318.112 331.179 C 310.189 330.865,307.367 331.181,302.054 332.976 C 290.671 336.821,281.311 344.530,276.527 354.000 C 272.921 361.137,273.323 361.000,256.000 361.000 C 238.678 361.000,239.087 361.140,235.466 354.000 C 230.721 344.643,221.134 336.755,209.890 332.957 C 204.637 331.183,201.789 330.866,193.888 331.179 C 185.178 331.524,183.557 331.915,176.624 335.341 C 161.891 342.623,152.237 356.375,151.242 371.500 C 150.988 375.350,150.159 379.492,149.398 380.704 C 147.576 383.606,96.276 429.118,80.211 442.084 C 70.904 449.596,64.603 451.672,55.813 450.124 C 45.578 448.321,37.096 441.824,32.890 432.565 C 29.176 424.388,29.825 420.303,47.485 340.704 C 56.551 299.838,64.889 263.728,66.014 260.461 C 71.001 245.965,84.113 230.087,97.722 222.063 C 114.324 212.275,134.988 209.151,153.500 213.631 M129.071 242.752 C 122.950 245.873,121.561 248.895,121.000 260.322 L 120.500 270.500 110.500 271.000 C 102.121 271.419,99.971 271.878,97.235 273.829 C 88.898 279.775,88.969 292.275,97.373 298.270 C 99.949 300.107,102.264 300.588,110.500 301.000 L 120.500 301.500 121.000 311.500 C 121.424 319.973,121.866 322.014,123.899 324.863 C 129.840 333.193,143.075 332.916,148.696 324.343 C 150.017 322.328,150.634 318.902,151.000 311.546 L 151.500 301.500 161.678 301.000 C 169.829 300.600,172.397 300.095,174.576 298.468 C 180.719 293.880,182.804 284.471,179.044 278.304 C 175.695 272.811,172.683 271.554,161.546 271.000 L 151.500 270.500 151.000 260.454 C 150.634 253.098,150.017 249.672,148.696 247.657 C 144.582 241.382,135.975 239.231,129.071 242.752 M368.304 242.956 C 362.811 246.305,361.554 249.317,361.000 260.454 L 360.500 270.500 350.454 271.000 C 339.317 271.554,336.305 272.811,332.956 278.304 C 329.196 284.471,331.281 293.880,337.424 298.468 C 339.603 300.095,342.171 300.600,350.322 301.000 L 360.500 301.500 361.000 311.546 C 361.366 318.902,361.983 322.328,363.304 324.343 C 368.925 332.916,382.160 333.193,388.101 324.863 C 390.134 322.014,390.576 319.973,391.000 311.500 L 391.500 301.500 401.500 301.000 C 409.973 300.576,412.014 300.134,414.863 298.101 C 423.112 292.218,423.061 279.746,414.765 273.829 C 412.029 271.878,409.879 271.419,401.500 271.000 L 391.500 270.500 391.000 260.322 C 390.597 252.124,390.097 249.596,388.429 247.322 C 383.979 241.258,374.472 239.195,368.304 242.956 M218.984 272.852 C 213.396 275.821,210.743 280.522,211.230 286.592 C 211.932 295.343,218.026 301.000,226.753 301.000 C 237.403 301.000,244.661 287.517,239.005 278.241 C 234.843 271.414,226.112 269.064,218.984 272.852 M278.241 272.995 C 268.803 278.749,268.675 292.385,277.999 298.750 C 284.082 302.902,293.747 300.973,298.201 294.718 C 301.496 290.091,301.792 282.391,298.839 278.102 C 294.181 271.333,284.786 269.004,278.241 272.995 M204.088 364.280 C 208.381 367.173,209.968 370.329,209.982 376.000 C 210.002 384.335,204.344 390.000,196.000 390.000 C 187.656 390.000,181.998 384.335,182.018 376.000 C 182.025 373.525,182.592 370.389,183.279 369.030 C 185.342 364.954,190.686 362.000,196.000 362.000 C 199.241 362.000,201.757 362.709,204.088 364.280 M324.088 364.280 C 328.381 367.173,329.968 370.329,329.982 376.000 C 330.002 384.335,324.344 390.000,316.000 390.000 C 307.656 390.000,301.998 384.335,302.018 376.000 C 302.025 373.525,302.592 370.389,303.279 369.030 C 305.342 364.954,310.686 362.000,316.000 362.000 C 319.241 362.000,321.757 362.709,324.088 364.280 " fill="url(#paint0_linear)"/>
</svg>
