<svg id="svg" version="1.1" xmlns="http://www.w3.org/2000/svg" xmlns:xlink="http://www.w3.org/1999/xlink" width="400" height="400" viewBox="0, 0, 400,400"><g id="svgg"><path id="path0" d="M179.100 0.274 C 177.175 0.361,175.600 0.604,175.600 0.816 C 175.600 1.027,174.351 1.200,172.824 1.200 C 171.297 1.200,169.936 1.380,169.800 1.600 C 169.664 1.820,168.584 2.000,167.400 2.000 C 166.216 2.000,165.136 2.180,165.000 2.400 C 164.864 2.620,163.874 2.800,162.800 2.800 C 161.726 2.800,160.736 2.980,160.600 3.200 C 160.464 3.420,159.553 3.600,158.576 3.600 C 157.599 3.600,156.800 3.780,156.800 4.000 C 156.800 4.220,156.080 4.400,155.200 4.400 C 154.320 4.400,153.600 4.580,153.600 4.800 C 153.600 5.020,152.880 5.200,152.000 5.200 C 151.120 5.200,150.400 5.380,150.400 5.600 C 150.400 5.820,149.680 6.000,148.800 6.000 C 147.920 6.000,147.200 6.180,147.200 6.400 C 147.200 6.620,146.660 6.800,146.000 6.800 C 145.340 6.800,144.800 6.980,144.800 7.200 C 144.800 7.420,144.170 7.600,143.400 7.600 C 142.630 7.600,142.000 7.759,142.000 7.954 C 142.000 8.149,141.013 8.431,139.806 8.582 C 138.600 8.733,137.509 9.023,137.383 9.228 C 137.256 9.433,136.724 9.600,136.200 9.600 C 135.676 9.600,135.136 9.780,135.000 10.000 C 134.864 10.220,134.401 10.400,133.971 10.400 C 133.541 10.400,132.832 10.580,132.395 10.800 C 131.958 11.020,131.242 11.380,130.805 11.600 C 130.368 11.820,129.648 12.000,129.205 12.000 C 128.762 12.000,128.400 12.180,128.400 12.400 C 128.400 12.620,127.950 12.800,127.400 12.800 C 126.850 12.800,126.400 12.980,126.400 13.200 C 126.400 13.420,126.040 13.600,125.600 13.600 C 125.160 13.600,124.800 13.780,124.800 14.000 C 124.800 14.220,124.260 14.400,123.600 14.400 C 122.940 14.400,122.400 14.580,122.400 14.800 C 122.400 15.020,122.040 15.200,121.600 15.200 C 121.160 15.200,120.800 15.380,120.800 15.600 C 120.800 15.820,120.440 16.000,120.000 16.000 C 119.560 16.000,119.200 16.180,119.200 16.400 C 119.200 16.620,118.928 16.800,118.595 16.800 C 118.007 16.800,117.582 16.967,115.705 17.938 C 115.213 18.192,114.538 18.400,114.205 18.400 C 113.872 18.400,113.600 18.580,113.600 18.800 C 113.600 19.020,113.240 19.200,112.800 19.200 C 112.360 19.200,112.000 19.346,112.000 19.525 C 112.000 19.704,111.370 20.098,110.600 20.400 C 109.830 20.702,109.200 21.096,109.200 21.275 C 109.200 21.454,108.840 21.600,108.400 21.600 C 107.960 21.600,107.600 21.780,107.600 22.000 C 107.600 22.220,107.240 22.400,106.800 22.400 C 106.360 22.400,106.000 22.580,106.000 22.800 C 106.000 23.020,105.764 23.200,105.475 23.200 C 105.187 23.200,104.564 23.560,104.092 24.000 C 103.620 24.440,103.040 24.800,102.803 24.800 C 102.324 24.800,98.314 26.764,98.000 27.152 C 97.687 27.539,95.476 28.825,94.700 29.071 C 94.315 29.193,94.000 29.452,94.000 29.647 C 94.000 29.841,93.770 30.000,93.488 30.000 C 93.207 30.000,92.717 30.360,92.400 30.800 C 92.083 31.240,91.543 31.600,91.200 31.600 C 90.857 31.600,90.317 31.960,90.000 32.400 C 89.683 32.840,89.143 33.200,88.800 33.200 C 88.457 33.200,87.917 33.560,87.600 34.000 C 87.283 34.440,86.743 34.800,86.400 34.800 C 86.057 34.800,85.517 35.160,85.200 35.600 C 84.883 36.040,84.420 36.400,84.171 36.400 C 83.922 36.400,83.154 36.940,82.463 37.600 C 81.772 38.260,81.008 38.800,80.764 38.800 C 80.520 38.800,79.817 39.340,79.200 40.000 C 78.583 40.660,77.964 41.200,77.823 41.200 C 77.552 41.200,77.152 41.514,75.149 43.300 C 74.471 43.905,73.759 44.400,73.568 44.400 C 73.377 44.400,72.451 45.167,71.511 46.105 C 70.570 47.043,69.170 48.256,68.400 48.801 C 66.619 50.060,49.600 67.103,49.600 67.626 C 49.600 67.841,48.610 69.007,47.400 70.217 C 46.190 71.427,45.200 72.571,45.200 72.758 C 45.200 72.946,44.480 73.887,43.600 74.849 C 42.720 75.812,42.000 76.736,42.000 76.903 C 42.000 77.071,41.460 77.772,40.800 78.463 C 40.140 79.154,39.600 79.922,39.600 80.171 C 39.600 80.420,39.240 80.883,38.800 81.200 C 38.360 81.517,38.000 81.980,38.000 82.229 C 38.000 82.478,37.460 83.246,36.800 83.937 C 36.140 84.628,35.600 85.425,35.600 85.708 C 35.600 85.991,35.240 86.483,34.800 86.800 C 34.360 87.117,34.000 87.657,34.000 88.000 C 34.000 88.343,33.640 88.883,33.200 89.200 C 32.760 89.517,32.400 90.031,32.400 90.341 C 32.400 90.652,32.084 91.197,31.697 91.553 C 31.311 91.909,30.726 92.740,30.397 93.400 C 30.069 94.060,29.485 94.949,29.100 95.375 C 28.715 95.802,28.400 96.387,28.400 96.675 C 28.400 96.964,28.220 97.200,28.000 97.200 C 27.780 97.200,27.600 97.545,27.600 97.967 C 27.600 98.388,27.443 98.793,27.251 98.867 C 26.779 99.047,24.800 103.019,24.800 103.787 C 24.800 104.124,24.620 104.400,24.400 104.400 C 24.180 104.400,24.000 104.678,24.000 105.017 C 24.000 105.356,23.640 106.020,23.200 106.492 C 22.760 106.964,22.400 107.587,22.400 107.875 C 22.400 108.164,22.220 108.400,22.000 108.400 C 21.780 108.400,21.600 108.760,21.600 109.200 C 21.600 109.640,21.420 110.000,21.200 110.000 C 20.980 110.000,20.800 110.360,20.800 110.800 C 20.800 111.240,20.620 111.600,20.400 111.600 C 20.180 111.600,20.000 111.949,20.000 112.376 C 20.000 112.803,19.820 113.264,19.600 113.400 C 19.380 113.536,19.200 113.997,19.200 114.424 C 19.200 114.851,19.020 115.200,18.800 115.200 C 18.580 115.200,18.400 115.560,18.400 116.000 C 18.400 116.440,18.220 116.800,18.000 116.800 C 17.780 116.800,17.600 117.160,17.600 117.600 C 17.600 118.040,17.420 118.400,17.200 118.400 C 16.980 118.400,16.800 118.749,16.800 119.176 C 16.800 119.603,16.620 120.064,16.400 120.200 C 16.180 120.336,16.000 120.887,16.000 121.424 C 16.000 121.961,15.820 122.400,15.600 122.400 C 15.380 122.400,15.200 122.760,15.200 123.200 C 15.200 123.640,15.020 124.000,14.800 124.000 C 14.580 124.000,14.400 124.355,14.400 124.788 C 14.400 125.221,14.040 126.217,13.600 127.000 C 13.160 127.783,12.800 128.768,12.800 129.189 C 12.800 129.609,12.620 130.064,12.400 130.200 C 12.180 130.336,12.000 130.887,12.000 131.424 C 12.000 131.961,11.820 132.400,11.600 132.400 C 11.380 132.400,11.200 132.940,11.200 133.600 C 11.200 134.260,11.020 134.800,10.800 134.800 C 10.580 134.800,10.400 135.340,10.400 136.000 C 10.400 136.660,10.220 137.200,10.000 137.200 C 9.780 137.200,9.600 137.729,9.600 138.376 C 9.600 139.023,9.433 139.656,9.228 139.783 C 9.023 139.909,8.732 141.002,8.581 142.212 C 8.430 143.421,8.148 144.509,7.953 144.629 C 7.759 144.749,7.600 145.377,7.600 146.024 C 7.600 146.671,7.420 147.200,7.200 147.200 C 6.980 147.200,6.800 147.920,6.800 148.800 C 6.800 149.680,6.620 150.400,6.400 150.400 C 6.180 150.400,6.000 151.120,6.000 152.000 C 6.000 152.880,5.820 153.600,5.600 153.600 C 5.380 153.600,5.200 154.500,5.200 155.600 C 5.200 156.700,5.020 157.600,4.800 157.600 C 4.580 157.600,4.400 158.320,4.400 159.200 C 4.400 160.080,4.220 160.800,4.000 160.800 C 3.780 160.800,3.600 161.790,3.600 163.000 C 3.600 164.210,3.420 165.200,3.200 165.200 C 2.978 165.200,2.800 166.267,2.800 167.600 C 2.800 168.933,2.622 170.000,2.400 170.000 C 2.167 170.000,2.000 171.333,2.000 173.200 C 2.000 175.067,1.833 176.400,1.600 176.400 C 1.360 176.400,1.200 177.992,1.200 180.376 C 1.200 182.596,1.023 184.462,0.800 184.600 C 0.253 184.938,0.253 215.062,0.800 215.400 C 1.023 215.538,1.200 217.404,1.200 219.624 C 1.200 222.008,1.360 223.600,1.600 223.600 C 1.833 223.600,2.000 224.933,2.000 226.800 C 2.000 228.667,2.167 230.000,2.400 230.000 C 2.622 230.000,2.800 231.067,2.800 232.400 C 2.800 233.733,2.978 234.800,3.200 234.800 C 3.420 234.800,3.600 235.790,3.600 237.000 C 3.600 238.210,3.780 239.200,4.000 239.200 C 4.220 239.200,4.400 239.920,4.400 240.800 C 4.400 241.680,4.580 242.400,4.800 242.400 C 5.020 242.400,5.200 243.300,5.200 244.400 C 5.200 245.500,5.380 246.400,5.600 246.400 C 5.820 246.400,6.000 247.120,6.000 248.000 C 6.000 248.880,6.180 249.600,6.400 249.600 C 6.620 249.600,6.800 250.320,6.800 251.200 C 6.800 252.080,6.980 252.800,7.200 252.800 C 7.420 252.800,7.600 253.419,7.600 254.176 C 7.600 254.933,7.763 255.654,7.963 255.777 C 8.162 255.900,8.449 256.900,8.600 258.000 C 8.751 259.100,9.038 260.100,9.237 260.223 C 9.437 260.346,9.603 260.842,9.606 261.324 C 9.613 262.281,10.487 265.020,10.926 265.459 C 11.077 265.610,11.200 266.153,11.200 266.667 C 11.200 267.180,11.380 267.600,11.600 267.600 C 11.820 267.600,12.000 268.140,12.000 268.800 C 12.000 269.460,12.180 270.000,12.400 270.000 C 12.620 270.000,12.800 270.355,12.800 270.788 C 12.800 271.221,13.160 272.217,13.600 273.000 C 14.040 273.783,14.400 274.779,14.400 275.212 C 14.400 275.645,14.580 276.000,14.800 276.000 C 15.020 276.000,15.200 276.360,15.200 276.800 C 15.200 277.240,15.380 277.600,15.600 277.600 C 15.820 277.600,16.000 278.140,16.000 278.800 C 16.000 279.460,16.180 280.000,16.400 280.000 C 16.620 280.000,16.800 280.360,16.800 280.800 C 16.800 281.240,16.980 281.600,17.200 281.600 C 17.420 281.600,17.600 281.960,17.600 282.400 C 17.600 282.840,17.780 283.200,18.000 283.200 C 18.220 283.200,18.400 283.549,18.400 283.976 C 18.400 284.403,18.580 284.864,18.800 285.000 C 19.020 285.136,19.200 285.597,19.200 286.024 C 19.200 286.451,19.380 286.800,19.600 286.800 C 19.820 286.800,20.000 287.034,20.000 287.320 C 20.000 288.056,20.941 289.993,21.300 289.997 C 21.465 289.999,21.600 290.360,21.600 290.800 C 21.600 291.240,21.780 291.600,22.000 291.600 C 22.220 291.600,22.400 291.960,22.400 292.400 C 22.400 292.840,22.580 293.200,22.800 293.200 C 23.020 293.200,23.200 293.520,23.200 293.912 C 23.200 294.303,23.560 294.883,24.000 295.200 C 24.440 295.517,24.800 296.026,24.800 296.330 C 24.800 296.996,27.651 302.544,28.091 302.733 C 28.261 302.807,28.400 303.044,28.400 303.261 C 28.400 303.478,28.940 304.441,29.600 305.400 C 30.260 306.359,30.800 307.297,30.800 307.484 C 30.800 307.671,31.160 308.083,31.600 308.400 C 32.040 308.717,32.400 309.257,32.400 309.600 C 32.400 309.943,32.760 310.483,33.200 310.800 C 33.640 311.117,34.000 311.657,34.000 312.000 C 34.000 312.343,34.360 312.883,34.800 313.200 C 35.240 313.517,35.600 314.057,35.600 314.400 C 35.600 314.743,35.960 315.283,36.400 315.600 C 36.840 315.917,37.200 316.380,37.200 316.629 C 37.200 316.878,37.740 317.646,38.400 318.337 C 39.060 319.028,39.600 319.748,39.600 319.937 C 39.600 320.126,40.140 320.846,40.800 321.537 C 41.460 322.228,42.000 322.937,42.000 323.113 C 42.000 323.289,42.630 324.101,43.400 324.918 C 44.170 325.734,44.800 326.554,44.800 326.740 C 44.800 326.926,45.880 328.213,47.200 329.600 C 48.520 330.987,49.600 332.276,49.600 332.465 C 49.600 332.937,68.323 351.600,68.797 351.600 C 69.007 351.600,69.949 352.367,70.889 353.305 C 71.830 354.243,73.202 355.438,73.938 355.960 C 74.674 356.481,75.735 357.334,76.296 357.854 C 76.858 358.374,77.488 358.800,77.698 358.800 C 77.908 358.800,78.583 359.340,79.200 360.000 C 79.817 360.660,80.537 361.200,80.800 361.200 C 81.063 361.200,81.783 361.740,82.400 362.400 C 83.017 363.060,83.769 363.600,84.072 363.600 C 84.375 363.600,84.883 363.960,85.200 364.400 C 85.517 364.840,86.031 365.200,86.341 365.200 C 86.652 365.200,87.197 365.516,87.553 365.903 C 87.909 366.289,88.695 366.860,89.300 367.170 C 89.905 367.481,90.400 367.885,90.400 368.068 C 90.400 368.250,90.720 368.400,91.112 368.400 C 91.503 368.400,92.083 368.760,92.400 369.200 C 92.717 369.640,93.207 370.000,93.488 370.000 C 93.770 370.000,94.000 370.159,94.000 370.353 C 94.000 370.548,94.315 370.807,94.700 370.929 C 95.469 371.173,97.683 372.457,98.000 372.844 C 98.367 373.291,102.186 375.200,102.714 375.200 C 102.999 375.200,103.620 375.560,104.092 376.000 C 104.564 376.440,105.187 376.800,105.475 376.800 C 105.764 376.800,106.000 376.980,106.000 377.200 C 106.000 377.420,106.360 377.600,106.800 377.600 C 107.240 377.600,107.600 377.780,107.600 378.000 C 107.600 378.220,107.960 378.400,108.400 378.400 C 108.840 378.400,109.200 378.546,109.200 378.725 C 109.200 378.904,109.830 379.298,110.600 379.600 C 111.370 379.902,112.000 380.296,112.000 380.475 C 112.000 380.654,112.360 380.800,112.800 380.800 C 113.240 380.800,113.600 380.980,113.600 381.200 C 113.600 381.420,113.872 381.600,114.205 381.600 C 114.793 381.600,115.218 381.767,117.095 382.738 C 117.587 382.992,118.262 383.200,118.595 383.200 C 118.928 383.200,119.200 383.380,119.200 383.600 C 119.200 383.820,119.560 384.000,120.000 384.000 C 120.440 384.000,120.800 384.180,120.800 384.400 C 120.800 384.620,121.149 384.800,121.576 384.800 C 122.003 384.800,122.464 384.980,122.600 385.200 C 122.736 385.420,123.287 385.600,123.824 385.600 C 124.361 385.600,124.800 385.780,124.800 386.000 C 124.800 386.220,125.160 386.400,125.600 386.400 C 126.040 386.400,126.400 386.580,126.400 386.800 C 126.400 387.020,126.762 387.200,127.205 387.200 C 127.648 387.200,128.323 387.359,128.705 387.553 C 131.226 388.835,139.629 391.600,141.006 391.600 C 141.553 391.600,142.000 391.780,142.000 392.000 C 142.000 392.220,142.630 392.400,143.400 392.400 C 144.170 392.400,144.800 392.580,144.800 392.800 C 144.800 393.020,145.520 393.200,146.400 393.200 C 147.280 393.200,148.000 393.380,148.000 393.600 C 148.000 393.820,148.540 394.000,149.200 394.000 C 149.860 394.000,150.400 394.180,150.400 394.400 C 150.400 394.620,151.109 394.800,151.976 394.800 C 152.843 394.800,153.664 394.980,153.800 395.200 C 153.936 395.420,154.847 395.600,155.824 395.600 C 156.801 395.600,157.600 395.780,157.600 396.000 C 157.600 396.220,158.410 396.400,159.400 396.400 C 160.390 396.400,161.200 396.580,161.200 396.800 C 161.200 397.020,162.089 397.200,163.176 397.200 C 164.263 397.200,165.264 397.380,165.400 397.600 C 165.536 397.820,166.627 398.000,167.824 398.000 C 169.021 398.000,170.000 398.180,170.000 398.400 C 170.000 398.630,171.240 398.800,172.920 398.800 C 174.723 398.800,176.031 398.991,176.340 399.300 C 176.729 399.689,182.263 399.800,201.287 399.800 C 220.489 399.800,225.769 399.693,225.900 399.300 C 226.012 398.964,226.976 398.800,228.833 398.800 C 230.411 398.800,231.600 398.628,231.600 398.400 C 231.600 398.178,232.667 398.000,234.000 398.000 C 235.333 398.000,236.400 397.822,236.400 397.600 C 236.400 397.380,237.390 397.200,238.600 397.200 C 239.810 397.200,240.800 397.020,240.800 396.800 C 240.800 396.580,241.509 396.400,242.376 396.400 C 243.243 396.400,244.064 396.220,244.200 396.000 C 244.336 395.780,245.247 395.600,246.224 395.600 C 247.201 395.600,248.000 395.420,248.000 395.200 C 248.000 394.980,248.720 394.800,249.600 394.800 C 250.480 394.800,251.200 394.620,251.200 394.400 C 251.200 394.180,251.920 394.000,252.800 394.000 C 253.680 394.000,254.400 393.820,254.400 393.600 C 254.400 393.380,254.929 393.200,255.576 393.200 C 256.223 393.200,256.864 393.020,257.000 392.800 C 257.136 392.580,257.777 392.400,258.424 392.400 C 259.071 392.400,259.600 392.241,259.600 392.046 C 259.600 391.851,260.587 391.569,261.794 391.418 C 263.000 391.267,264.091 390.977,264.217 390.772 C 264.344 390.567,264.876 390.400,265.400 390.400 C 265.924 390.400,266.464 390.220,266.600 390.000 C 266.736 389.780,267.276 389.600,267.800 389.600 C 268.324 389.600,268.864 389.420,269.000 389.200 C 269.136 388.980,269.591 388.800,270.011 388.800 C 270.432 388.800,271.417 388.440,272.200 388.000 C 272.983 387.560,273.979 387.200,274.412 387.200 C 274.845 387.200,275.200 387.053,275.200 386.872 C 275.200 386.692,276.100 386.300,277.200 386.000 C 278.300 385.700,279.200 385.308,279.200 385.128 C 279.200 384.947,279.560 384.800,280.000 384.800 C 280.440 384.800,280.800 384.620,280.800 384.400 C 280.800 384.180,281.149 384.000,281.576 384.000 C 282.003 384.000,282.464 383.820,282.600 383.600 C 282.736 383.380,283.287 383.200,283.824 383.200 C 284.361 383.200,284.800 383.020,284.800 382.800 C 284.800 382.580,285.160 382.400,285.600 382.400 C 286.040 382.400,286.400 382.220,286.400 382.000 C 286.400 381.780,286.760 381.600,287.200 381.600 C 287.640 381.600,288.000 381.420,288.000 381.200 C 288.000 380.980,288.360 380.800,288.800 380.800 C 289.240 380.800,289.600 380.620,289.600 380.400 C 289.600 380.180,289.960 380.000,290.400 380.000 C 290.840 380.000,291.200 379.820,291.200 379.600 C 291.200 379.380,291.470 379.200,291.800 379.200 C 292.130 379.200,292.400 379.020,292.400 378.800 C 292.400 378.580,292.760 378.400,293.200 378.400 C 293.640 378.400,294.000 378.220,294.000 378.000 C 294.000 377.780,294.360 377.600,294.800 377.600 C 295.240 377.600,295.600 377.420,295.600 377.200 C 295.600 376.980,295.960 376.800,296.400 376.800 C 296.840 376.800,297.200 376.620,297.200 376.400 C 297.200 376.180,297.560 376.000,298.000 376.000 C 298.440 376.000,298.800 375.854,298.800 375.675 C 298.800 375.496,299.655 374.962,300.700 374.487 C 302.546 373.650,304.794 372.406,305.200 371.999 C 305.310 371.889,305.892 371.545,306.493 371.235 C 307.095 370.926,307.942 370.341,308.377 369.936 C 308.811 369.531,309.404 369.200,309.695 369.200 C 309.986 369.200,310.483 368.840,310.800 368.400 C 311.117 367.960,311.657 367.600,312.000 367.600 C 312.343 367.600,312.883 367.240,313.200 366.800 C 313.517 366.360,314.009 366.000,314.292 366.000 C 314.575 366.000,315.372 365.460,316.063 364.800 C 316.754 364.140,317.522 363.600,317.771 363.600 C 318.020 363.600,318.483 363.240,318.800 362.800 C 319.117 362.360,319.625 362.000,319.928 362.000 C 320.231 362.000,320.983 361.460,321.600 360.800 C 322.217 360.140,322.919 359.600,323.160 359.600 C 323.402 359.600,323.600 359.420,323.600 359.200 C 323.600 358.980,323.861 358.800,324.180 358.800 C 324.499 358.800,324.904 358.566,325.080 358.280 C 325.256 357.994,326.030 357.320,326.800 356.782 C 327.570 356.244,328.897 355.128,329.748 354.302 C 330.600 353.476,331.458 352.800,331.655 352.800 C 331.852 352.800,333.347 351.495,334.978 349.900 C 336.609 348.305,340.051 345.020,342.627 342.600 C 350.327 335.365,355.200 330.392,355.200 329.767 C 355.200 329.444,326.137 300.118,290.615 264.599 L 226.031 200.018 290.643 135.412 C 341.580 84.481,355.206 70.648,355.019 70.060 C 354.889 69.650,351.541 66.184,347.579 62.357 C 343.617 58.531,338.477 53.555,336.157 51.300 C 333.837 49.045,331.768 47.200,331.559 47.200 C 331.350 47.200,330.369 46.390,329.379 45.400 C 328.389 44.410,327.431 43.600,327.251 43.600 C 327.070 43.600,326.490 43.229,325.961 42.776 C 325.433 42.322,324.594 41.602,324.097 41.176 C 323.600 40.749,323.104 40.400,322.993 40.400 C 322.883 40.400,322.228 39.860,321.537 39.200 C 320.846 38.540,320.078 38.000,319.829 38.000 C 319.580 38.000,319.117 37.640,318.800 37.200 C 318.483 36.760,318.038 36.400,317.812 36.399 C 317.585 36.399,316.770 35.859,316.000 35.200 C 315.230 34.541,314.415 34.001,314.188 34.001 C 313.962 34.000,313.517 33.640,313.200 33.200 C 312.883 32.760,312.303 32.400,311.912 32.400 C 311.520 32.400,311.200 32.250,311.200 32.068 C 311.200 31.885,310.705 31.480,310.100 31.168 C 309.495 30.855,308.682 30.314,308.293 29.964 C 307.905 29.614,307.095 29.074,306.493 28.765 C 305.892 28.455,305.310 28.111,305.200 28.001 C 304.930 27.730,303.411 26.874,301.000 25.635 C 299.900 25.070,298.940 24.471,298.867 24.304 C 298.793 24.137,298.388 24.000,297.967 24.000 C 297.545 24.000,297.200 23.820,297.200 23.600 C 297.200 23.380,296.840 23.200,296.400 23.200 C 295.960 23.200,295.600 23.020,295.600 22.800 C 295.600 22.580,295.240 22.400,294.800 22.400 C 294.360 22.400,294.000 22.220,294.000 22.000 C 294.000 21.780,293.640 21.600,293.200 21.600 C 292.760 21.600,292.400 21.420,292.400 21.200 C 292.400 20.980,292.130 20.800,291.800 20.800 C 291.470 20.800,291.200 20.620,291.200 20.400 C 291.200 20.180,290.840 20.000,290.400 20.000 C 289.960 20.000,289.600 19.820,289.600 19.600 C 289.600 19.380,289.240 19.200,288.800 19.200 C 288.360 19.200,288.000 19.020,288.000 18.800 C 288.000 18.580,287.640 18.400,287.200 18.400 C 286.760 18.400,286.400 18.220,286.400 18.000 C 286.400 17.780,286.040 17.600,285.600 17.600 C 285.160 17.600,284.800 17.420,284.800 17.200 C 284.800 16.980,284.451 16.800,284.024 16.800 C 283.597 16.800,283.136 16.620,283.000 16.400 C 282.864 16.180,282.313 16.000,281.776 16.000 C 281.239 16.000,280.800 15.820,280.800 15.600 C 280.800 15.380,280.440 15.200,280.000 15.200 C 279.560 15.200,279.200 15.020,279.200 14.800 C 279.200 14.580,278.851 14.400,278.424 14.400 C 277.997 14.400,277.536 14.220,277.400 14.000 C 277.264 13.780,276.713 13.600,276.176 13.600 C 275.639 13.600,275.200 13.420,275.200 13.200 C 275.200 12.980,274.928 12.800,274.595 12.800 C 274.262 12.800,273.632 12.620,273.195 12.400 C 272.758 12.180,272.042 11.820,271.605 11.600 C 271.168 11.380,270.459 11.200,270.029 11.200 C 269.599 11.200,269.136 11.020,269.000 10.800 C 268.864 10.580,268.313 10.400,267.776 10.400 C 267.239 10.400,266.800 10.220,266.800 10.000 C 266.800 9.780,266.271 9.600,265.624 9.600 C 264.977 9.600,264.344 9.433,264.217 9.228 C 264.091 9.023,263.000 8.733,261.794 8.582 C 260.587 8.431,259.600 8.149,259.600 7.954 C 259.600 7.759,259.060 7.600,258.400 7.600 C 257.740 7.600,257.200 7.420,257.200 7.200 C 257.200 6.980,256.570 6.800,255.800 6.800 C 255.030 6.800,254.400 6.620,254.400 6.400 C 254.400 6.180,253.680 6.000,252.800 6.000 C 251.920 6.000,251.200 5.820,251.200 5.600 C 251.200 5.380,250.480 5.200,249.600 5.200 C 248.720 5.200,248.000 5.020,248.000 4.800 C 248.000 4.580,247.280 4.400,246.400 4.400 C 245.520 4.400,244.800 4.220,244.800 4.000 C 244.800 3.780,244.001 3.600,243.024 3.600 C 242.047 3.600,241.136 3.420,241.000 3.200 C 240.864 2.980,239.964 2.800,239.000 2.800 C 238.036 2.800,237.136 2.620,237.000 2.400 C 236.864 2.180,235.784 2.000,234.600 2.000 C 233.416 2.000,232.336 1.820,232.200 1.600 C 232.064 1.380,230.829 1.200,229.456 1.200 C 228.024 1.200,226.752 0.992,226.472 0.712 C 225.990 0.230,187.926 -0.121,179.100 0.274 M215.773 34.005 C 223.168 34.831,229.639 35.747,232.600 36.388 C 233.480 36.579,235.280 36.956,236.600 37.227 C 248.927 39.755,261.650 44.229,274.622 50.599 C 283.057 54.741,297.058 63.252,300.257 66.182 C 300.508 66.412,301.896 67.500,303.342 68.600 C 304.788 69.700,305.977 70.780,305.985 71.000 C 305.993 71.221,277.110 100.291,241.800 135.600 C 206.490 170.910,177.648 199.945,177.708 200.124 C 177.767 200.302,206.657 229.293,241.908 264.548 C 277.159 299.803,306.000 328.846,306.000 329.087 C 306.000 329.467,304.407 330.734,296.834 336.381 C 290.655 340.988,277.959 348.207,269.400 351.979 C 267.860 352.657,266.287 353.390,265.905 353.606 C 265.523 353.823,265.034 354.000,264.817 354.000 C 264.601 354.000,263.414 354.462,262.180 355.026 C 257.488 357.173,244.025 361.251,236.600 362.775 C 235.280 363.046,233.840 363.346,233.400 363.442 C 230.233 364.131,223.316 365.165,216.141 366.022 C 211.436 366.584,190.491 366.588,185.800 366.028 C 176.156 364.876,171.445 364.139,165.337 362.827 C 105.329 349.942,56.404 303.654,40.373 244.600 C 38.982 239.474,37.880 234.687,37.196 230.800 C 36.945 229.370,36.583 227.390,36.391 226.400 C 36.068 224.728,35.892 223.211,34.802 212.732 C 34.285 207.754,34.283 192.270,34.800 187.268 C 35.655 178.989,36.040 175.724,36.390 173.800 C 38.112 164.324,38.997 160.377,40.858 153.863 C 53.743 108.754,85.652 70.790,128.086 50.082 C 130.883 48.717,133.262 47.600,133.374 47.600 C 133.485 47.600,134.527 47.166,135.688 46.635 C 138.802 45.213,145.640 42.683,150.200 41.266 C 162.430 37.466,171.575 35.599,185.600 34.037 C 189.950 33.553,211.517 33.530,215.773 34.005 M176.000 100.204 L 176.000 116.807 196.700 116.704 L 217.400 116.600 217.504 100.100 L 217.609 83.600 196.804 83.600 L 176.000 83.600 176.000 100.204 M350.400 133.600 L 350.400 151.200 375.200 151.200 L 400.000 151.200 400.000 133.600 L 400.000 116.000 375.200 116.000 L 350.400 116.000 350.400 133.600 M300.400 200.000 L 300.400 217.600 350.200 217.600 L 400.000 217.600 400.000 200.000 L 400.000 182.400 350.200 182.400 L 300.400 182.400 300.400 200.000 M350.400 266.800 L 350.400 284.000 375.200 284.000 L 400.000 284.000 400.000 266.800 L 400.000 249.600 375.200 249.600 L 350.400 249.600 350.400 266.800 " stroke="none" fill="#047cfc" fill-rule="evenodd"></path><path id="path1" d="M185.600 34.037 C 171.575 35.599,162.430 37.466,150.200 41.266 C 145.640 42.683,138.802 45.213,135.688 46.635 C 134.527 47.166,133.485 47.600,133.374 47.600 C 133.262 47.600,130.883 48.717,128.086 50.082 C 85.652 70.790,53.743 108.754,40.858 153.863 C 38.997 160.377,38.112 164.324,36.390 173.800 C 36.040 175.724,35.655 178.989,34.800 187.268 C 34.283 192.270,34.285 207.754,34.802 212.732 C 35.892 223.211,36.068 224.728,36.391 226.400 C 36.583 227.390,36.945 229.370,37.196 230.800 C 38.275 236.938,40.114 244.181,42.527 251.800 C 48.244 269.853,58.053 288.135,70.400 303.752 C 92.113 331.214,123.888 352.042,157.737 360.999 C 166.578 363.339,173.158 364.518,185.800 366.028 C 190.491 366.588,211.436 366.584,216.141 366.022 C 223.316 365.165,230.233 364.131,233.400 363.442 C 233.840 363.346,235.280 363.046,236.600 362.775 C 244.025 361.251,257.488 357.173,262.180 355.026 C 263.414 354.462,264.601 354.000,264.817 354.000 C 265.034 354.000,265.523 353.823,265.905 353.606 C 266.287 353.390,267.860 352.657,269.400 351.979 C 277.959 348.207,290.655 340.988,296.834 336.381 C 304.407 330.734,306.000 329.467,306.000 329.087 C 306.000 328.846,277.159 299.803,241.908 264.548 C 206.657 229.293,177.767 200.302,177.708 200.124 C 177.648 199.945,206.490 170.910,241.800 135.600 C 277.110 100.291,305.993 71.221,305.985 71.000 C 305.977 70.780,304.788 69.700,303.342 68.600 C 301.896 67.500,300.508 66.412,300.257 66.182 C 300.006 65.952,298.090 64.578,296.000 63.129 C 278.255 50.826,256.361 41.279,236.600 37.227 C 235.280 36.956,233.480 36.579,232.600 36.388 C 229.639 35.747,223.168 34.831,215.773 34.005 C 211.517 33.530,189.950 33.553,185.600 34.037 M217.504 100.100 L 217.400 116.600 196.700 116.704 L 176.000 116.807 176.000 100.204 L 176.000 83.600 196.804 83.600 L 217.609 83.600 217.504 100.100 " stroke="none" fill="#cce4fc" fill-rule="evenodd"></path></g></svg>