<svg width="49" height="49" viewBox="0 0 49 49" fill="none" xmlns="http://www.w3.org/2000/svg">
<path d="M49 0H7C3.13401 0 0 3.13401 0 7V49L49 0Z" fill="#AF55F5"/>
<path d="M14.6682 11.8248L9.40753 10.0717L9.07309 10.4062L10.8262 15.6668L14.6682 11.8248Z" fill="#D8ABFD"/>
<path d="M19.2839 20.2838L15.6133 12.6318L11.6318 16.6132L19.2839 20.2838Z" fill="#D8ABFD"/>
<path d="M10.6925 17.5525L6.1582 22.0868L19.004 21.5151L10.6925 17.5525Z" fill="#D8ABFD"/>
<path d="M16.5534 11.6921L20.516 20.0037L21.0877 7.15783L16.5534 11.6921Z" fill="#D8ABFD"/>
<path d="M8.09269 11.3862L5.26569 14.2132L5.26569 21.227L9.84614 16.6465L8.09269 11.3862Z" fill="#D8ABFD"/>
<path d="M10.3867 9.09175L15.6471 10.8452L20.2275 6.26474L13.2137 6.26474L10.3867 9.09175Z" fill="#D8ABFD"/>
</svg>
