<svg width="29" height="28" viewBox="0 0 29 28" fill="none" xmlns="http://www.w3.org/2000/svg">
<path d="M14.0882 1.01679C14.178 0.740393 14.569 0.740394 14.6588 1.01679L17.7577 10.5542C17.7978 10.6778 17.913 10.7615 18.043 10.7615H28.0712C28.3618 10.7615 28.4827 11.1334 28.2475 11.3042L20.1345 17.1986C20.0294 17.275 19.9854 17.4104 20.0256 17.534L23.1245 27.0714C23.2143 27.3478 22.8979 27.5777 22.6628 27.4068L14.5498 21.5124C14.4447 21.436 14.3023 21.436 14.1971 21.5124L6.08414 27.4068C5.84903 27.5777 5.53268 27.3478 5.62249 27.0714L8.72138 17.534C8.76154 17.4104 8.71754 17.275 8.6124 17.1986L0.4994 11.3042C0.264286 11.1334 0.385119 10.7615 0.675736 10.7615H10.7039C10.8339 10.7615 10.9491 10.6778 10.9893 10.5542L14.0882 1.01679Z" fill="#3878F4"/>
</svg>
