<svg width="13" height="22" viewBox="0 0 13 22" fill="none" xmlns="http://www.w3.org/2000/svg">
<path d="M12.4142 3.41421C13.1953 2.63317 13.1953 1.36683 12.4142 0.585787C11.6332 -0.195263 10.3668 -0.195263 9.58579 0.585787L12.4142 3.41421ZM2 11L0.585787 9.58579C0.210713 9.96086 0 10.4696 0 11C0 11.5304 0.210713 12.0391 0.585787 12.4142L2 11ZM9.58579 21.4142C10.3668 22.1953 11.6332 22.1953 12.4142 21.4142C13.1953 20.6332 13.1953 19.3668 12.4142 18.5858L9.58579 21.4142ZM9.58579 0.585787L0.585787 9.58579L3.41421 12.4142L12.4142 3.41421L9.58579 0.585787ZM0.585787 12.4142L9.58579 21.4142L12.4142 18.5858L3.41421 9.58579L0.585787 12.4142Z" fill="#0081FE"/>
</svg>
