<svg id="svg" version="1.1" width="512" height="512" xmlns="http://www.w3.org/2000/svg">
<linearGradient id="paint0_linear" gradientTransform="rotate(90)">
    <stop offset="0%" stop-color="#2af598"/>
    <stop offset="100%" stop-color="#01a0fb"/>
</linearGradient>
<path d="M232.500 0.638 C 191.742 6.725,165.402 16.252,135.500 35.723 C 102.085 57.481,76.552 86.503,58.450 123.301 C 46.732 147.121,39.626 172.081,37.063 198.424 C 36.365 205.595,36.000 261.330,36.000 360.674 C 36.000 511.333,36.009 512.000,38.000 512.000 C 39.100 512.000,40.000 511.594,40.000 511.097 C 40.000 510.600,49.112 503.977,60.250 496.378 C 71.387 488.779,88.556 477.036,98.402 470.281 C 108.861 463.106,117.285 458.000,118.663 458.000 C 120.187 458.000,133.090 467.021,155.136 483.500 C 173.900 497.525,189.849 509.000,190.580 509.000 C 191.881 509.000,200.859 501.936,235.990 473.271 C 245.679 465.364,254.376 459.005,255.490 459.011 C 256.595 459.017,263.125 463.638,270.000 469.279 C 299.646 493.606,319.133 508.999,320.274 508.992 C 320.948 508.988,334.935 499.077,351.356 486.967 C 394.271 455.320,392.265 456.624,395.500 458.268 C 400.018 460.564,472.000 510.282,472.000 511.106 C 472.000 511.598,472.900 512.000,474.000 512.000 C 475.991 512.000,476.000 511.333,476.000 360.674 C 476.000 259.463,475.641 205.730,474.917 198.424 C 468.317 131.846,432.029 71.854,376.500 35.719 C 350.157 18.576,324.825 8.595,292.000 2.425 C 283.745 0.874,239.767 -0.447,232.500 0.638 M270.000 41.015 C 295.639 43.239,314.770 48.765,338.000 60.660 C 367.209 75.615,391.184 97.841,408.481 126.000 C 411.690 131.225,415.357 137.051,416.628 138.946 C 417.900 140.842,418.748 142.585,418.513 142.820 C 418.278 143.056,416.439 142.276,414.426 141.089 C 407.808 137.184,396.442 134.659,385.500 134.663 C 373.503 134.668,365.765 136.510,354.000 142.164 C 346.931 145.561,343.984 147.785,336.499 155.374 C 329.380 162.593,326.614 166.279,323.263 173.012 C 320.855 177.850,318.766 183.677,318.422 186.512 C 317.678 192.654,316.110 198.000,315.054 198.000 C 314.619 198.000,314.045 194.602,313.778 190.448 C 312.748 174.391,298.604 154.162,281.471 144.241 C 253.010 127.759,219.292 132.360,195.981 155.905 C 174.806 177.294,169.959 209.344,183.717 237.000 C 186.534 242.662,189.667 246.735,196.506 253.622 C 204.259 261.429,206.928 263.401,215.032 267.311 C 235.944 277.401,255.941 277.455,276.627 267.477 C 297.255 257.528,314.000 234.898,314.000 216.970 C 314.000 212.010,315.290 209.708,316.420 212.652 C 316.766 213.555,317.458 217.178,317.958 220.704 C 319.630 232.517,329.076 248.727,339.238 257.225 C 359.075 273.814,383.298 278.947,406.706 271.523 C 418.646 267.736,431.199 259.670,434.500 253.664 C 435.173 252.441,435.500 282.112,435.500 344.284 L 435.500 436.724 431.500 433.498 C 422.221 426.016,394.522 408.000,392.296 408.000 C 390.232 408.000,366.876 424.526,330.500 451.727 C 326.650 454.606,322.513 456.970,321.307 456.981 C 320.100 456.991,316.278 454.621,312.807 451.709 C 297.388 438.774,259.287 408.200,257.224 407.107 C 254.381 405.602,256.821 403.854,220.500 433.405 C 204.550 446.382,190.683 457.000,189.685 457.000 C 188.687 457.000,173.261 446.093,155.406 432.761 C 137.550 419.430,122.036 408.188,120.930 407.779 C 119.365 407.199,115.109 409.607,101.710 418.652 C 92.244 425.042,82.700 431.723,80.500 433.498 L 76.500 436.725 77.067 316.612 C 77.688 185.257,77.355 192.628,83.661 170.569 C 95.588 128.853,122.632 92.547,159.500 68.759 C 182.844 53.698,213.173 43.358,240.653 41.092 C 254.907 39.917,257.269 39.910,270.000 41.015 M245.869 178.185 C 242.622 182.744,242.146 191.280,244.803 197.288 C 249.628 208.194,263.533 212.199,273.378 205.518 L 276.823 203.181 274.856 210.340 C 271.612 222.148,266.440 228.125,256.048 232.074 C 241.438 237.625,223.285 229.405,218.527 215.083 C 216.355 208.542,216.807 197.220,219.449 192.000 C 224.134 182.743,235.505 175.300,245.318 175.067 L 248.136 175.000 245.869 178.185 M386.586 176.905 C 383.450 180.371,381.923 187.541,383.126 193.151 C 386.123 207.125,403.945 213.944,413.668 204.836 L 415.836 202.806 415.333 207.153 C 415.057 209.544,413.479 214.338,411.826 217.806 C 401.362 239.758,368.832 238.960,358.901 216.508 C 354.713 207.041,355.646 197.499,361.653 188.377 C 366.893 180.418,375.934 175.243,384.905 175.067 C 388.191 175.002,388.250 175.066,386.586 176.905 " fill="url(#paint0_linear)"/>
</svg>