<svg width="14" height="13" viewBox="0 0 14 13" fill="none" xmlns="http://www.w3.org/2000/svg">
<path d="M6.52114 0.947238C6.71964 0.554582 7.28036 0.554581 7.47886 0.947237L9.03682 4.02906C9.11589 4.18547 9.26637 4.29341 9.43987 4.31817L12.9032 4.81245C13.3472 4.87581 13.5221 5.42343 13.1972 5.73246L10.7085 8.09931C10.5783 8.22315 10.5187 8.40396 10.5498 8.58095L11.1392 11.9367C11.2159 12.3734 10.76 12.7094 10.3657 12.5069L7.2451 10.9045C7.09125 10.8255 6.90875 10.8255 6.7549 10.9045L3.63435 12.5069C3.23997 12.7094 2.78407 12.3734 2.86077 11.9367L3.45022 8.58095C3.48131 8.40396 3.42174 8.22315 3.29152 8.09931L0.802789 5.73246C0.477852 5.42343 0.652832 4.87581 1.09675 4.81245L4.56013 4.31817C4.73363 4.29341 4.88411 4.18547 4.96318 4.02906L6.52114 0.947238Z" fill="#C7C8D2"/>
</svg>
